<mxfile host="app.diagrams.net" modified="2023-09-26T00:44:24.246Z" agent="Mozilla/5.0 (Macintosh; Intel Mac OS X 10_15_7) AppleWebKit/605.1.15 (KHTML, like Gecko) Version/16.5.2 Safari/605.1.15" version="21.8.2" etag="N5LJndGYuL4PuGmoHp0v" type="github">
  <diagram name="Page-1" id="lvqEdNJYN6dXEYo9q0eT">
    <mxGraphModel>
      <root>
        <mxCell id="0" />
        <mxCell id="1" parent="0" />
      </root>
    </mxGraphModel>
  </diagram>
</mxfile>
